<?xml version="1.0" encoding="utf-8"?>
<svg width="64px" height="64px" viewBox="0 0 64 64" version="1.1" xmlns:xlink="http://www.w3.org/1999/xlink" xmlns="http://www.w3.org/2000/svg">
  <defs>
    <rect width="64" height="64" id="artboard_1" />
    <clipPath id="clip_1">
      <use xlink:href="#artboard_1" clip-rule="evenodd" />
    </clipPath>
  </defs>
  <g id="page-icon" clip-path="url(#clip_1)">
    <use xlink:href="#artboard_1" stroke="none" fill="#275EAC" fill-opacity="0" />
    <g id="编组" transform="translate(3 13)" artboard="e8254e3c-c60c-4bfd-b6dd-ae98cc42bddd">
      <g id="#" transform="translate(0 2.7182312)">
        <g id="编组-3" transform="translate(2.204895 0)">
          <path d="M4.63973 0L9 0.575502L4.36027 31.5798L0 31.0043L4.63973 0Z" id="矩形-Copy" fill="#275EAC" fill-rule="evenodd" stroke="none" />
          <path d="M13.678 0L18.0382 0.575502L13.3985 31.5798L9.03824 31.0043L13.678 0Z" id="矩形-Copy-2" fill="#275EAC" fill-rule="evenodd" stroke="none" />
        </g>
        <g id="编组-2" transform="translate(0 8.905548)">
          <path d="M22.448 7.84717e-05L22.448 3L0 2.99992L0 0L22.448 7.84717e-05Z" id="矩形-Copy-3" fill="#275EAC" fill-rule="evenodd" stroke="none" />
          <path d="M22.448 10.7688L22.448 13.7687L0 13.7686L0 10.7687L22.448 10.7688Z" id="矩形-Copy-4" fill="#275EAC" fill-rule="evenodd" stroke="none" />
        </g>
      </g>
      <g id="n" transform="translate(25.795013 0)">
        <path d="M19.6465 0.061801C19.0712 0.00688452 18.9259 0.0137336 18.3486 0C17.7713 0.0137382 17.6259 0.00688914 17.0506 0.0618143C15.9723 0.164756 14.9067 0.396523 13.8831 0.750762C11.8339 1.45993 9.96468 2.66116 8.46829 4.23055C7.12203 5.64249 6.08597 7.34239 5.44796 9.18601C5.09373 10.2096 4.86197 11.2752 4.75904 12.3535C4.70412 12.9288 4.71097 13.0741 4.69724 13.6514L4.69724 37.0162L11.4791 37.0162L11.4791 17.1695Q11.4791 17.0565 11.4847 16.9435Q11.4902 16.8306 11.5013 16.7181Q11.5124 16.6056 11.529 16.4937Q11.5456 16.3819 11.5676 16.271Q11.5897 16.1601 11.6171 16.0504Q11.6446 15.9407 11.6774 15.8325Q11.7103 15.7243 11.7483 15.6179Q11.7864 15.5114 11.8297 15.407Q11.873 15.3025 11.9213 15.2003Q11.9697 15.0981 12.023 14.9984Q12.0763 14.8987 12.1344 14.8017Q12.1925 14.7047 12.2553 14.6107Q12.3181 14.5167 12.3855 14.4259Q12.4528 14.3351 12.5246 14.2477Q12.5963 14.1603 12.6722 14.0765Q12.7482 13.9927 12.8281 13.9128Q12.908 13.8328 12.9918 13.7569Q13.0756 13.681 13.163 13.6092Q13.2504 13.5375 13.3412 13.4702Q13.432 13.4028 13.526 13.34Q13.62 13.2772 13.717 13.2191Q13.814 13.1609 13.9137 13.1076Q14.0134 13.0543 14.1156 13.006Q14.2178 12.9576 14.3223 12.9144Q14.4268 12.8711 14.5332 12.833Q14.6397 12.7949 14.7479 12.7621Q14.8561 12.7293 14.9657 12.7018Q15.0754 12.6743 15.1863 12.6523Q15.2972 12.6302 15.409 12.6136Q15.5209 12.597 15.6334 12.586Q15.7459 12.5749 15.8589 12.5693Q15.9718 12.5638 16.0848 12.5638L16.0868 12.5638Q16.1999 12.5638 16.3128 12.5693Q16.4258 12.5749 16.5383 12.586Q16.6508 12.597 16.7626 12.6136Q16.8745 12.6302 16.9854 12.6523Q17.0963 12.6743 17.2059 12.7018Q17.3156 12.7293 17.4238 12.7621Q17.532 12.7949 17.6385 12.833Q17.7449 12.8711 17.8494 12.9144Q17.9538 12.9576 18.056 13.006Q18.1583 13.0543 18.258 13.1076Q18.3577 13.1609 18.4547 13.2191Q18.5516 13.2772 18.6456 13.34Q18.7397 13.4028 18.8305 13.4702Q18.9213 13.5375 19.0087 13.6092Q19.0961 13.681 19.1799 13.7569Q19.2636 13.8328 19.3436 13.9128Q19.4235 13.9927 19.4995 14.0765Q19.5754 14.1603 19.6471 14.2477Q19.7188 14.3351 19.7862 14.4259Q19.8535 14.5167 19.9164 14.6107Q19.9792 14.7047 20.0373 14.8017Q20.0954 14.8987 20.1487 14.9984Q20.202 15.0981 20.2504 15.2003Q20.2987 15.3025 20.342 15.407Q20.3852 15.5114 20.4233 15.6179Q20.4614 15.7243 20.4942 15.8325Q20.5271 15.9407 20.5545 16.0504Q20.582 16.1601 20.6041 16.271Q20.6261 16.3819 20.6427 16.4937Q20.6593 16.6056 20.6704 16.7181Q20.6815 16.8306 20.687 16.9435Q20.6926 17.0565 20.6926 17.1695L20.6926 37.0162L32 37.0162L32 13.6514C31.9863 13.074 31.9931 12.9287 31.9382 12.3534C31.8352 11.2751 31.6035 10.2095 31.2492 9.18589C30.5401 7.13669 29.3388 5.26743 27.7694 3.77104C26.3575 2.42478 24.6576 1.38873 22.814 0.750718C21.7904 0.396489 20.7248 0.164732 19.6465 0.061801Z" id="矩形-2-减去" fill="#275EAC" fill-rule="evenodd" stroke="none" />
        <path d="M0 0L8.80734 0L8.80734 36.9908L0 36.9908L0 0Z" id="矩形-3" fill="#275EAC" fill-rule="evenodd" stroke="none" />
      </g>
    </g>
    <path d="M0 61L64 61L64 64L0 64L0 61Z" id="矩形" fill="#275EAC" fill-rule="evenodd" stroke="none" artboard="b80fbfb1-4ce3-4fd6-a049-c277178e4e88" />
    <path d="M0 0L64 0L64 3L0 3L0 0Z" id="矩形-Copy" fill="#275EAC" fill-rule="evenodd" stroke="none" artboard="81a23f49-2e39-4ba0-8a17-0016d6f53499" />
  </g>
</svg>