<?xml version="1.0" encoding="utf-8"?>
<svg width="9728px" height="512px" viewBox="0 0 9728 512" version="1.1" xmlns:xlink="http://www.w3.org/1999/xlink" xmlns="http://www.w3.org/2000/svg">
  <defs>
    <path d="M0 0L384 0L384 512L0 512L0 0Z" id="path_1" />
    <path d="M0 0L448 0L448 512L0 512L0 0Z" id="path_2" />
    <path d="M0 0L512 0L512 512L0 512L0 0Z" id="path_3" />
    <path d="M0 0L512 0L512 409.6L0 409.6L0 0Z" id="path_4" />
    <rect width="9728" height="512" id="artboard_1" />
    <clipPath id="clip_1">
      <use xlink:href="#artboard_1" clip-rule="evenodd" />
    </clipPath>
    <clipPath id="mask_1">
      <use xlink:href="#path_1" />
    </clipPath>
    <clipPath id="mask_2">
      <use xlink:href="#path_2" />
    </clipPath>
    <clipPath id="mask_3">
      <use xlink:href="#path_3" />
    </clipPath>
    <clipPath id="mask_4">
      <use xlink:href="#path_4" />
    </clipPath>
  </defs>
  <g id="btn-icon-script" clip-path="url(#clip_1)">
    <use xlink:href="#artboard_1" stroke="none" fill="#FFFFFF" fill-opacity="0" />
    <g id="bold-solid" transform="translate(1088 0)" artboard="819c1876-b2e4-4f32-a168-250e32f729a2">
      <path d="M0 0L384 0L384 512L0 512L0 0Z" id="背景" fill="#FFFFFF" fill-opacity="0" fill-rule="evenodd" stroke="none" />
      <g clip-path="url(#mask_1)">
        <path d="M0 64C0 46.3 14.3 32 32 32L80 32L96 32L224 32C294.7 32 352 89.3 352 160C352 191.3 340.7 220.1 322 242.3C359.1 264.7 384 305.4 384 352C384 422.7 326.7 480 256 480L96 480L80 480L32 480C14.3 480 0 465.7 0 448C0 430.3 14.3 416 32 416L48 416L48 256L48 96L32 96C14.3 96 0 81.7 0 64L0 64ZM224 224C259.3 224 288 195.3 288 160C288 124.7 259.3 96 224 96L112 96L112 224L224 224L224 224ZM112 288L112 416L256 416C291.3 416 320 387.3 320 352C320 316.7 291.3 288 256 288L224 288L112 288L112 288Z" id="形状" fill="#000000" fill-rule="evenodd" stroke="none" />
      </g>
    </g>
    <g id="italic-solid" transform="translate(1600 0)" artboard="2c9b8e0e-6b04-4e69-af7f-be894f1bad1d">
      <path d="M0 0L384 0L384 512L0 512L0 0Z" id="背景" fill="#FFFFFF" fill-opacity="0" fill-rule="evenodd" stroke="none" />
      <g clip-path="url(#mask_1)">
        <path d="M128 64C128 46.3 142.3 32 160 32L352 32C369.7 32 384 46.3 384 64C384 81.7 369.7 96 352 96L293.3 96L160 416L224 416C241.7 416 256 430.3 256 448C256 465.7 241.7 480 224 480L32 480C14.3 480 0 465.7 0 448C0 430.3 14.3 416 32 416L90.7 416L224 96L160 96C142.3 96 128 81.7 128 64L128 64Z" id="形状" fill="#000000" stroke="none" />
      </g>
    </g>
    <g id="underline-solid" transform="translate(2080 0)" artboard="d0ad4f9b-114d-4793-87bf-57bfe67718ba">
      <path d="M0 0L448 0L448 512L0 512L0 0Z" id="背景" fill="#FFFFFF" fill-opacity="0" fill-rule="evenodd" stroke="none" />
      <g clip-path="url(#mask_2)">
        <path d="M16 64C16 46.3 30.3 32 48 32L144 32C161.7 32 176 46.3 176 64C176 81.7 161.7 96 144 96L128 96L128 224C128 277 171 320 224 320C277 320 320 277 320 224L320 96L304 96C286.3 96 272 81.7 272 64C272 46.3 286.3 32 304 32L400 32C417.7 32 432 46.3 432 64C432 81.7 417.7 96 400 96L384 96L384 224C384 312.4 312.4 384 224 384C135.6 384 64 312.4 64 224L64 96L48 96C30.3 96 16 81.7 16 64L16 64ZM0 448C0 430.3 14.3 416 32 416L416 416C433.7 416 448 430.3 448 448C448 465.7 433.7 480 416 480L32 480C14.3 480 0 465.7 0 448L0 448Z" id="形状" fill="#000000" fill-rule="evenodd" stroke="none" />
      </g>
    </g>
    <g id="strikethrough-solid" transform="translate(2560 0)" artboard="f2f22b9e-6a3e-4ba2-ad38-f1d34e5bd9ac">
      <path d="M0 0L512 0L512 512L0 512L0 0Z" id="背景" fill="#FFFFFF" fill-opacity="0" fill-rule="evenodd" stroke="none" />
      <g clip-path="url(#mask_3)">
        <path d="M161.3 144C164.5 126.8 175.3 113.9 195 105.4C216.1 96.3998 246.8 93.0998 283.6 98.8998C295.5 100.8 332.4 108 343.7 110.9C360.8 115.4 378.3 105.3 382.9 88.1998C387.5 71.0998 377.3 53.5998 360.2 48.9998C345.9 45.1998 306.6 37.5998 293.6 35.5998C248.9 28.5998 205.3 31.3998 169.9 46.4998C133.4 62.0998 105.5 91.2998 98.1 133.8C98 134.4 97.9 134.9 97.9 135.5C95.1 159.4 98.4 181.1 108 200.1C112.5 209.1 118.2 217 124.7 224L32 224C14.3 224 0 238.3 0 256C0 273.7 14.3 288 32 288L480 288C497.7 288 512 273.7 512 256C512 238.3 497.7 224 480 224L270.1 224C270 224 269.8 223.9 269.7 223.9L268.6 223.6C232.6 212.8 203.4 204 183.4 190.5C174.1 184.2 168.4 177.9 165.2 171.4C162.1 165.3 160 156.8 161.4 144L161.3 144ZM348.9 337.2C351.6 343.7 353.3 353 350.8 367.3C347.8 384.9 337 398.1 316.9 406.7C295.8 415.7 265.2 419 228.4 413.2C210.4 410.3 179.3 399.7 154 391.1C148.4 389.2 143 387.4 138.1 385.7C121.3 380.1 103.2 389.2 97.6002 406C92.0002 422.8 101.1 440.9 117.9 446.5C121.5 447.7 125.8 449.2 130.6 450.8L130.6 450.8L130.6 450.8C155.5 459.3 194.2 472.5 218.2 476.4L218.2 476.4L218.4 476.4C263.1 483.4 306.7 480.6 342.1 465.5C378.6 449.9 406.5 420.7 413.9 378.2C417.5 357.2 416.6 337.8 410.8 320.1L335.1 320.1C342.1 325.7 346.5 331.3 349 337.3L348.9 337.2Z" id="形状" fill="#000000" fill-rule="evenodd" stroke="none" />
      </g>
    </g>
    <g id="bookmark-solid" transform="translate(3136 0)" artboard="05ceea6b-3872-47ca-9a06-8a74e22c569f">
      <path d="M0 48L0 487.7C0 501.1 10.9 512 24.3 512C29.3 512 34.2 510.5 38.3 507.6L192 400L345.7 507.6C349.8 510.5 354.7 512 359.7 512C373.1 512 384 501.1 384 487.7L384 48C384 21.5 362.5 0 336 0L48 0C21.5 0 0 21.5 0 48L0 48Z" id="形状" fill="#000000" stroke="none" />
    </g>
    <g id="superscript-solid" transform="translate(3584 0)" artboard="a0927bce-ec4b-4a46-bb67-23e423e3a753">
      <path d="M0 0L512 0L512 512L0 512L0 0Z" id="背景" fill="#FFFFFF" fill-opacity="0" fill-rule="evenodd" stroke="none" />
      <g clip-path="url(#mask_3)">
        <path d="M480 31.9998C480 20.8998 474.3 10.5998 464.8 4.79982C455.3 -1.00018 443.6 -1.60018 433.7 3.39982L401.7 19.3998C385.9 27.2998 379.5 46.4998 387.4 62.2998C393 73.4998 404.3 79.9998 416 79.9998L416 160C398.3 160 384 174.3 384 192C384 209.7 398.3 224 416 224L448 224L480 224C497.7 224 512 209.7 512 192C512 174.3 497.7 160 480 160L480 31.9998L480 31.9998ZM32 64C14.3 64 0 78.3 0 96C0 113.7 14.3 128 32 128L47.3 128L136.9 256L47.3 384L32 384C14.3 384 0 398.3 0 416C0 433.7 14.3 448 32 448L64 448C74.4 448 84.2 442.9 90.2 434.4L176 311.8L261.8 434.4C267.8 443 277.6 448 288 448L320 448C337.7 448 352 433.7 352 416C352 398.3 337.7 384 320 384L304.7 384L215.1 256L304.7 128L320 128C337.7 128 352 113.7 352 96C352 78.3 337.7 64 320 64L288 64C277.6 64 267.8 69.1 261.8 77.6L176 200.2L90.2 77.6C84.2 69.1 74.4 64 64 64L32 64L32 64Z" id="形状" fill="#000000" fill-rule="evenodd" stroke="none" />
      </g>
    </g>
    <g id="subscript-solid" transform="translate(4096 0)" artboard="8d09feb3-399f-46ae-8e54-e145edc12a25">
      <path d="M0 0L512 0L512 512L0 512L0 0Z" id="背景" fill="#FFFFFF" fill-opacity="0" fill-rule="evenodd" stroke="none" />
      <g clip-path="url(#mask_3)">
        <path d="M32 64C14.3 64 0 78.3 0 96C0 113.7 14.3 128 32 128L47.3 128L136.9 256L47.3 384L32 384C14.3 384 0 398.3 0 416C0 433.7 14.3 448 32 448L64 448C74.4 448 84.2 442.9 90.2 434.4L176 311.8L261.8 434.4C267.8 443 277.6 448 288 448L320 448C337.7 448 352 433.7 352 416C352 398.3 337.7 384 320 384L304.7 384L215.1 256L304.7 128L320 128C337.7 128 352 113.7 352 96C352 78.3 337.7 64 320 64L288 64C277.6 64 267.8 69.1 261.8 77.6L176 200.2L90.2 77.6C84.2 69.1 74.4 64 64 64L32 64L32 64ZM480 320C480 308.9 474.3 298.6 464.8 292.8C455.3 287 443.6 286.4 433.7 291.4L401.7 307.4C385.9 315.3 379.5 334.5 387.4 350.3C393 361.5 404.3 368 416 368L416 448C398.3 448 384 462.3 384 480C384 497.7 398.3 512 416 512L448 512L480 512C497.7 512 512 497.7 512 480C512 462.3 497.7 448 480 448L480 320L480 320Z" id="形状" fill="#000000" fill-rule="evenodd" stroke="none" />
      </g>
    </g>
    <g id="quote-left-solid" transform="translate(4640 0)" artboard="de740e1d-a3a6-4aec-b063-b0d0a6de2735">
      <path d="M0 0L448 0L448 512L0 512L0 0Z" id="背景" fill="#FFFFFF" fill-opacity="0" fill-rule="evenodd" stroke="none" />
      <g clip-path="url(#mask_2)">
        <path d="M0 216C0 149.7 53.7 96 120 96L128 96C145.7 96 160 110.3 160 128C160 145.7 145.7 160 128 160L120 160C89.1 160 64 185.1 64 216L64 224L128 224C163.3 224 192 252.7 192 288L192 352C192 387.3 163.3 416 128 416L64 416C28.7 416 0 387.3 0 352L0 320L0 288L0 216L0 216ZM256 216C256 149.7 309.7 96 376 96L384 96C401.7 96 416 110.3 416 128C416 145.7 401.7 160 384 160L376 160C345.1 160 320 185.1 320 216L320 224L384 224C419.3 224 448 252.7 448 288L448 352C448 387.3 419.3 416 384 416L320 416C284.7 416 256 387.3 256 352L256 320L256 288L256 216L256 216Z" id="形状" fill="#000000" fill-rule="evenodd" stroke="none" />
      </g>
    </g>
    <g id="list-ol-solid" transform="translate(5120 0)" artboard="2eef331b-c7d5-4277-90f8-1377a0bc7e2b">
      <path d="M0 0L512 0L512 512L0 512L0 0Z" id="背景" fill="#FFFFFF" fill-opacity="0" fill-rule="evenodd" stroke="none" />
      <g clip-path="url(#mask_3)">
        <path d="M24 56C24 42.7 34.7 32 48 32L80 32C93.3 32 104 42.7 104 56L104 176L120 176C133.3 176 144 186.7 144 200C144 213.3 133.3 224 120 224L40 224C26.7 224 16 213.3 16 200C16 186.7 26.7 176 40 176L56 176L56 80L48 80C34.7 80 24 69.3 24 56L24 56ZM86.7001 341.2C80.2001 333.8 68.4001 334.3 62.7001 342.4L51.5001 357.9C43.8001 368.7 28.8001 371.2 18.0001 363.5C7.20015 355.8 4.70015 340.8 12.4001 330L23.5001 314.4C47.2001 281.2 95.8002 278.8 122.7 309.5C144 333.9 143.5 370.4 121.6 394.2L86.8002 432L120 432C133.3 432 144 442.7 144 456C144 469.3 133.3 480 120 480L32.0002 480C22.5001 480 13.8001 474.4 10.0001 465.6C6.20015 456.8 7.90015 446.7 14.3001 439.7L86.3002 361.7C91.6002 355.9 91.7002 347.1 86.6002 341.2L86.7001 341.2ZM224 64L480 64C497.7 64 512 78.3 512 96C512 113.7 497.7 128 480 128L224 128C206.3 128 192 113.7 192 96C192 78.3 206.3 64 224 64L224 64ZM224 224L480 224C497.7 224 512 238.3 512 256C512 273.7 497.7 288 480 288L224 288C206.3 288 192 273.7 192 256C192 238.3 206.3 224 224 224L224 224ZM224 384L480 384C497.7 384 512 398.3 512 416C512 433.7 497.7 448 480 448L224 448C206.3 448 192 433.7 192 416C192 398.3 206.3 384 224 384L224 384Z" id="形状" fill="#000000" fill-rule="evenodd" stroke="none" />
      </g>
    </g>
    <g id="list-ul-solid" transform="translate(5632 0)" artboard="c8b3e31e-c9ad-4554-a808-927b45012f8e">
      <path d="M0 0L512 0L512 512L0 512L0 0Z" id="背景" fill="#FFFFFF" fill-opacity="0" fill-rule="evenodd" stroke="none" />
      <g clip-path="url(#mask_3)">
        <path d="M64 144C90.5 144 112 122.5 112 96C112 69.5 90.5 48 64 48C37.5 48 16 69.5 16 96C16 122.5 37.5 144 64 144L64 144ZM192 64C174.3 64 160 78.3 160 96C160 113.7 174.3 128 192 128L480 128C497.7 128 512 113.7 512 96C512 78.3 497.7 64 480 64L192 64L192 64ZM192 224C174.3 224 160 238.3 160 256C160 273.7 174.3 288 192 288L480 288C497.7 288 512 273.7 512 256C512 238.3 497.7 224 480 224L192 224L192 224ZM192 384C174.3 384 160 398.3 160 416C160 433.7 174.3 448 192 448L480 448C497.7 448 512 433.7 512 416C512 398.3 497.7 384 480 384L192 384L192 384ZM64 464C90.5 464 112 442.5 112 416C112 389.5 90.5 368 64 368C37.5 368 16 389.5 16 416C16 442.5 37.5 464 64 464L64 464ZM112 256C112 229.5 90.5 208 64 208C37.5 208 16 229.5 16 256C16 282.5 37.5 304 64 304C90.5 304 112 282.5 112 256L112 256Z" id="形状" fill="#000000" fill-rule="evenodd" stroke="none" />
      </g>
    </g>
    <g id="link-solid-Copy" transform="matrix(-0.99999994 -2.6259818E-06 2.6259818E-06 -0.99999994 6640.6865 476.58154)" artboard="352e855f-c555-4af5-8f19-aff8a45ecd12">
      <path d="M28.3597 228.656C-13.9203 284.15 -8.28216 366.011 40.9609 411.615C84.5388 451.972 148.762 450.89 192.801 409.087L194.029 407.963C205.058 397.488 206.498 379.305 197.275 367.413C188.051 355.521 171.643 354.23 160.695 364.696L159.467 365.82C134.879 389.118 99.1013 389.739 74.8659 367.211C47.4119 341.786 44.2691 296.158 67.8413 265.22L151.79 154.84C175.362 123.901 216.669 119.437 244.123 144.862C268.439 167.381 274.06 206.342 257.485 236.975L256.692 238.503C249.237 252.288 253.223 269.883 265.434 277.757C277.645 285.631 293.721 280.92 301.101 267.233L301.894 265.706C331.726 210.746 321.606 140.816 278.028 100.459C228.785 54.855 154.676 62.8634 112.396 118.357L28.3597 228.656L28.3597 228.656ZM452.208 212.52C494.488 157.026 488.85 75.1645 439.607 29.5611C396.029 -10.7959 331.805 -9.7145 287.766 32.0886L286.538 33.2128C275.51 43.6881 274.069 61.8702 283.293 73.7624C292.516 85.6546 308.925 86.946 319.872 76.4794L321.1 75.3553C345.688 52.058 381.466 51.4366 405.702 73.9645C433.156 99.3896 436.299 145.017 412.726 175.956L328.777 286.336C305.205 317.275 263.899 321.739 236.445 296.314C212.128 273.794 206.507 234.834 223.083 204.2L223.875 202.673C231.33 188.888 227.344 171.292 215.134 163.418C202.923 155.544 186.847 160.256 179.466 173.942L178.674 175.47C148.842 230.43 158.962 300.36 202.54 340.717C251.783 386.321 325.892 378.312 368.172 322.819L452.208 212.52L452.208 212.52Z" id="形状" fill="#000000" fill-rule="evenodd" stroke="none" />
    </g>
    <g id="image-solid" transform="translate(6656 0)" artboard="1d4b9bd4-2663-44ca-a914-2dde70b73c6c">
      <path d="M0 0L512 0L512 512L0 512L0 0Z" id="背景" fill="#FFFFFF" fill-opacity="0" fill-rule="evenodd" stroke="none" />
      <g clip-path="url(#mask_3)">
        <path d="M0 96C0 60.7 28.7 32 64 32L448 32C483.3 32 512 60.7 512 96L512 416C512 451.3 483.3 480 448 480L64 480C28.7 480 0 451.3 0 416L0 96L0 96ZM323.8 202.5C319.3 195.9 311.9 192 304 192C296.1 192 288.6 195.9 284.2 202.5L197.2 330.1L170.7 297C166.1 291.3 159.2 288 152 288C144.8 288 137.8 291.3 133.3 297L69.3001 377C63.5001 384.2 62.4001 394.1 66.4001 402.4C70.4001 410.7 78.8001 416 88.0001 416L184 416L216 416L424 416C432.9 416 441.1 411.1 445.2 403.2C449.3 395.3 448.8 385.8 443.8 378.5L323.8 202.5L323.8 202.5ZM112 192C138.5 192 160 170.5 160 144C160 117.5 138.5 96 112 96C85.5 96 64 117.5 64 144C64 170.5 85.5 192 112 192L112 192Z" id="形状" fill="#000000" fill-rule="evenodd" stroke="none" />
      </g>
    </g>
    <g id="code-solid" transform="translate(7168.998 51.200195)" artboard="b2f27e93-a51e-40e2-a19c-ef3ab39de8e5">
      <path d="M0 0L512 0L512 409.6L0 409.6L0 0Z" id="背景" fill="#FFFFFF" fill-opacity="0" fill-rule="evenodd" stroke="none" />
      <g clip-path="url(#mask_4)">
        <path d="M314.241 0.959844C300.641 -2.96016 286.48 4.95984 282.561 18.5598L180.161 376.96C176.241 390.56 184.161 404.72 197.761 408.64C211.361 412.56 225.521 404.64 229.441 391.04L331.841 32.6399C335.76 19.0399 327.841 4.87986 314.241 0.95986L314.241 0.959844ZM378.721 97.0396C368.721 107.04 368.721 123.28 378.721 133.28L450.161 204.8L378.641 276.32C368.641 286.32 368.641 302.56 378.641 312.56C388.641 322.56 404.881 322.56 414.881 312.56L504.481 222.96C514.481 212.96 514.481 196.72 504.481 186.72L414.881 97.1196C404.881 87.1196 388.641 87.1196 378.641 97.1196L378.721 97.0396ZM133.361 97.0396C123.361 87.0396 107.121 87.0396 97.1205 97.0396L7.52051 186.64C-2.47949 196.64 -2.47949 212.88 7.52051 222.88L97.1205 312.48C107.121 322.48 123.361 322.48 133.361 312.48C143.361 302.48 143.361 286.24 133.361 276.24L61.8405 204.8L133.361 133.28C143.361 123.28 143.361 107.04 133.361 97.0396L133.361 97.0396Z" id="形状" fill="#000000" fill-rule="evenodd" stroke="none" />
      </g>
    </g>
    <g id="table-solid" transform="translate(7679.999 0)" artboard="7eaa6998-9b02-4c6e-aa95-466667249927">
      <path d="M0 0L512 0L512 512L0 512L0 0Z" id="背景" fill="#FFFFFF" fill-opacity="0" fill-rule="evenodd" stroke="none" />
      <g clip-path="url(#mask_3)">
        <path d="M64 256L64 160L224 160L224 256L64 256L64 256ZM64 320L224 320L224 416L64 416L64 320L64 320ZM288 416L288 320L448 320L448 416L288 416L288 416ZM448 256L288 256L288 160L448 160L448 256L448 256ZM64 32C28.7 32 0 60.7 0 96L0 416C0 451.3 28.7 480 64 480L448 480C483.3 480 512 451.3 512 416L512 96C512 60.7 483.3 32 448 32L64 32L64 32Z" id="形状" fill="#000000" fill-rule="evenodd" stroke="none" />
      </g>
    </g>
    <g id="rotate-left-solid" transform="translate(8191.999 0)" artboard="7b4e4d34-0cd2-4170-b729-eee5d87deb6b">
      <path d="M0 0L512 0L512 512L0 512L0 0Z" id="背景" fill="#FFFFFF" fill-opacity="0" fill-rule="evenodd" stroke="none" />
      <g clip-path="url(#mask_3)">
        <path d="M48.5 224L40 224C26.7 224 16 213.3 16 200L16 71.9998C16 62.2998 21.8 53.4998 30.8 49.7998C39.8 46.0998 50.1 48.0998 57 54.9998L98.6 96.5998C186.2 10.0998 327.3 10.3998 414.4 97.5998C501.9 185.1 501.9 326.9 414.4 414.4C326.9 501.9 185.1 501.9 97.6 414.4C85.1 401.9 85.1 381.6 97.6 369.1C110.1 356.6 130.4 356.6 142.9 369.1C205.4 431.6 306.7 431.6 369.2 369.1C431.7 306.6 431.7 205.3 369.2 142.8C307 80.5998 206.5 80.2998 143.9 141.8L185 183C191.9 189.9 193.9 200.2 190.2 209.2C186.5 218.2 177.7 224 168 224L48.5 224L48.5 224Z" id="形状" fill="#000000" stroke="none" />
      </g>
    </g>
    <g id="rotate-right-solid" transform="translate(8703.999 0)" artboard="43b7debe-b3b2-4f78-bda1-a6496d2acd52">
      <path d="M0 0L512 0L512 512L0 512L0 0Z" id="背景" fill="#FFFFFF" fill-opacity="0" fill-rule="evenodd" stroke="none" />
      <g clip-path="url(#mask_3)">
        <path d="M463.5 224L472 224C485.3 224 496 213.3 496 200L496 71.9998C496 62.2998 490.2 53.4998 481.2 49.7998C472.2 46.0998 461.9 48.0998 455 54.9998L413.4 96.5998C325.8 10.0998 184.7 10.3998 97.5996 97.5998C10.0996 185.1 10.0996 326.9 97.5996 414.4C185.1 501.9 326.9 501.9 414.4 414.4C426.9 401.9 426.9 381.6 414.4 369.1C401.9 356.6 381.6 356.6 369.1 369.1C306.6 431.6 205.3 431.6 142.8 369.1C80.2996 306.6 80.2996 205.3 142.8 142.8C205 80.5998 305.5 80.2998 368.1 141.8L327 183C320.1 189.9 318.1 200.2 321.8 209.2C325.5 218.2 334.3 224 344 224L463.5 224L463.5 224Z" id="形状" fill="#000000" stroke="none" />
      </g>
    </g>
    <g id="circle-info-solid" transform="translate(9216 0)" artboard="aaa0847b-e158-480a-9aed-5223d5cc6e05">
      <path d="M256 512C397.4 512 512 397.4 512 256C512 114.6 397.4 0 256 0C114.6 0 0 114.6 0 256C0 397.4 114.6 512 256 512L256 512ZM216 336L240 336L240 272L216 272C202.7 272 192 261.3 192 248C192 234.7 202.7 224 216 224L264 224C277.3 224 288 234.7 288 248L288 336L296 336C309.3 336 320 346.7 320 360C320 373.3 309.3 384 296 384L216 384C202.7 384 192 373.3 192 360C192 346.7 202.7 336 216 336L216 336ZM256 192C238.3 192 224 177.7 224 160C224 142.3 238.3 128 256 128C273.7 128 288 142.3 288 160C288 177.7 273.7 192 256 192L256 192Z" id="形状" fill="#000000" fill-rule="evenodd" stroke="none" />
    </g>
    <g id="hashtag-solid" transform="translate(544.0005 0)" artboard="fb63fcfd-21da-4a52-b43d-f2a5b0695c0c">
      <path d="M0 0L448 0L448 512L0 512L0 0Z" id="背景" fill="#FFFFFF" fill-opacity="0" fill-rule="evenodd" stroke="none" />
      <g clip-path="url(#mask_2)">
        <path d="M181.3 32.4002C198.7 35.3002 210.5 51.8002 207.6 69.2002L197.8 128L292.9 128L304.4 58.7002C307.3 41.3002 323.8 29.5002 341.2 32.4002C358.6 35.3002 370.4 51.8002 367.5 69.2002L357.8 128L416 128C433.7 128 448 142.3 448 160C448 177.7 433.7 192 416 192L347.1 192L325.8 320L384 320C401.7 320 416 334.3 416 352C416 369.7 401.7 384 384 384L315.1 384L303.6 453.3C300.7 470.7 284.2 482.5 266.8 479.6C249.4 476.7 237.6 460.2 240.5 442.8L250.3 384.1L155.1 384.1L143.6 453.4C140.7 470.8 124.2 482.6 106.8 479.7C89.4 476.8 77.6 460.3 80.5 442.9L90.2 384L32 384C14.3 384 0 369.7 0 352C0 334.3 14.3 320 32 320L100.9 320L122.2 192L64 192C46.3 192 32 177.7 32 160C32 142.3 46.3 128 64 128L132.9 128L144.4 58.7002C147.3 41.3002 163.8 29.5002 181.2 32.4002L181.3 32.4002ZM187.1 192L165.8 320L260.9 320L282.2 192L187.1 192L187.1 192Z" id="形状" fill="#000000" fill-rule="evenodd" stroke="none" />
      </g>
    </g>
    <g id="floppy-disk-solid" transform="translate(32 0)" artboard="98fc7011-716d-4760-9e3f-35ad997add64">
      <path d="M0 0L448 0L448 512L0 512L0 0Z" id="背景" fill="#FFFFFF" fill-opacity="0" fill-rule="evenodd" stroke="none" />
      <g clip-path="url(#mask_2)">
        <path d="M64 32C28.7 32 0 60.7 0 96L0 416C0 451.3 28.7 480 64 480L384 480C419.3 480 448 451.3 448 416L448 173.3C448 156.3 441.3 140 429.3 128L352 50.7C340 38.7 323.7 32 306.7 32L64 32L64 32ZM64 128C64 110.3 78.3 96 96 96L288 96C305.7 96 320 110.3 320 128L320 192C320 209.7 305.7 224 288 224L96 224C78.3 224 64 209.7 64 192L64 128L64 128ZM224 416C188.7 416 160 387.3 160 352C160 316.7 188.7 288 224 288C259.3 288 288 316.7 288 352C288 387.3 259.3 416 224 416L224 416Z" id="形状" fill="#000000" fill-rule="evenodd" stroke="none" />
      </g>
    </g>
  </g>
</svg>